<svg width="352" height="67" viewBox="0 0 352 67" fill="none" xmlns="http://www.w3.org/2000/svg">
<path d="M41.6335 7.5036C41.4701 7.21345 40.5804 5.69017 38.6558 5.14614C36.7675 4.60211 35.2423 5.38189 34.9337 5.54509C34.8792 5.58136 34.8247 5.5995 34.7703 5.63577C35.1697 5.03733 35.7507 4.31196 36.5496 3.56845C36.5496 3.56845 37.748 2.44413 39.2005 1.64622C45.2467 -1.6905 52.7636 0.213606 56.5221 5.83525C56.5039 5.83525 56.5039 5.85338 56.4858 5.85338C63.7303 18.7831 70.9749 31.6948 78.2194 44.6246C72.8813 44.6064 67.5432 44.5883 62.2052 44.5702C60.0808 40.7438 57.9565 36.9175 55.8321 33.0911C54.3251 30.371 52.8181 27.669 51.3111 24.9488L41.6335 7.5036Z" fill="white"/>
<path d="M34.8063 5.59942L34.8789 5.56315C37.2756 4.23935 40.2896 5.1098 41.6333 7.50353C42.7953 9.60711 43.9573 11.6926 45.1194 13.7961C41.5062 19.7442 37.8748 25.6741 34.2616 31.6222C31.7741 27.1249 29.2685 22.6275 26.781 18.1484C29.4501 13.9593 32.1373 9.78845 34.8063 5.59942Z" fill="white"/>
<path d="M36.5859 58.5702C36.7493 58.8603 37.639 60.3836 39.5636 60.9276C41.4519 61.4717 42.9771 60.6919 43.2858 60.5287C43.3402 60.4924 43.3947 60.4743 43.4492 60.438C43.0497 61.0364 42.4687 61.7618 41.6698 62.5053C41.6698 62.5053 40.4715 63.6296 39.0189 64.4276C32.9727 67.7643 25.4558 65.8602 21.6973 60.2385C21.7155 60.2385 21.7155 60.2204 21.7337 60.2204C14.4891 47.2906 7.24455 34.379 0 21.4492C5.33809 21.4674 10.6762 21.4855 16.0143 21.5036C18.1386 25.33 20.263 29.1563 22.3873 32.9826C23.8943 35.7028 25.4013 38.4048 26.9083 41.125L36.5859 58.5702Z" fill="white"/>
<path d="M43.4124 60.4739L43.3398 60.5102C40.9431 61.834 37.9291 60.9635 36.5855 58.5698C35.4234 56.4662 34.2614 54.3808 33.0994 52.2772C36.7126 46.3292 40.3439 40.3811 43.9571 34.4512C46.4446 38.9485 48.9502 43.4458 51.4377 47.925C48.7687 52.114 46.0815 56.2849 43.4124 60.4739Z" fill="white"/>
<path d="M96.7486 31.3993L102.893 20.0511V31.3993H107.031V14.3027H102.348L96.2035 25.6509V14.3027H92.0657V31.3993H96.7486Z" fill="white"/>
<path d="M125.048 31.3993V14.3027H120.91V20.9431H114.642V14.3027H110.504V31.3993H114.642V24.4368H120.91V31.3993H125.048Z" fill="white"/>
<path d="M141.564 17.7964V14.3027H127.267V17.7964H132.347V31.3993H136.484V17.7964H141.564Z" fill="white"/>
<path d="M156.138 31.3993V28.0047H147.936V24.3129H154.032V20.9927H147.936V17.6973H156.039V14.3027H143.799V31.3993H156.138Z" fill="white"/>
<path d="M172.821 20.1255C172.821 16.4832 170.938 14.3027 166.899 14.3027H158.946V31.3993H163.084V25.7995H166.899C170.938 25.7995 172.821 23.743 172.821 20.1255ZM168.559 20.5219C168.559 21.6617 167.841 22.3554 166.429 22.3554H163.084V17.7468H166.429C167.866 17.7468 168.559 18.4654 168.559 19.6795V20.5219Z" fill="white"/>
<path d="M189.775 31.3993V14.3027H185.637V20.9431H179.368V14.3027H175.23V31.3993H179.368V24.4368H185.637V31.3993H189.775Z" fill="white"/>
<path d="M205.572 31.3993V28.0047H197.371V24.3129H203.466V20.9927H197.371V17.6973H205.473V14.3027H193.233V31.3993H205.572Z" fill="white"/>
<path d="M221.438 17.7964V14.3027H207.141V17.7964H212.22V31.3993H216.358V17.7964H221.438Z" fill="white"/>
<path d="M243.742 20.1255C243.742 16.4832 241.859 14.3027 237.82 14.3027H229.867V31.3993H234.005V25.7995H237.82C241.859 25.7995 243.742 23.743 243.742 20.1255ZM239.48 20.5219C239.48 21.6617 238.762 22.3554 237.35 22.3554H234.005V17.7468H237.35C238.787 17.7468 239.48 18.4654 239.48 19.6795V20.5219Z" fill="white"/>
<path d="M258.49 31.3993V28.0047H250.289V24.3129H256.384V20.9927H250.289V17.6973H258.391V14.3027H246.151V31.3993H258.49Z" fill="white"/>
<path d="M278.866 14.3027V27.9056H274.232V14.3027H270.07V27.9056H265.436V14.3027H261.298V31.3993H283.004V14.3027H278.866Z" fill="white"/>
<path d="M298.802 31.3993V28.0047H290.601V24.3129H296.696V20.9927H290.601V17.6973H298.703V14.3027H286.463V31.3993H298.802Z" fill="white"/>
<path d="M316.155 31.3993V14.3027H312.017V20.9431H305.748V14.3027H301.61V31.3993H305.748V24.4368H312.017V31.3993H316.155Z" fill="white"/>
<path d="M324.296 31.3993L330.441 20.0511V31.3993H334.578V14.3027H329.895L323.751 25.6509V14.3027H319.613V31.3993H324.296Z" fill="white"/>
<path d="M337.679 19.9025C337.679 22.2563 338.67 23.966 340.553 24.8332L337.307 31.3993H341.668L344.592 25.4774H347.293V31.3993H351.455V14.3027H343.898C339.934 14.3027 337.679 16.4584 337.679 19.9025ZM341.966 19.506C341.966 18.2671 342.783 17.6477 344.171 17.6477H347.293V22.1572H344.171C342.758 22.1572 341.966 21.4635 341.966 20.1998V19.506Z" fill="white"/>
<path d="M105.796 47.8451L102.959 56.3934H104.012L104.818 53.9528H108.522L109.389 56.3934H110.504L107.481 47.8451H105.796ZM106.614 48.5513L108.2 53.0484H105.115L106.614 48.5513Z" fill="white"/>
<path d="M111.764 47.8451V56.3934H112.879V48.7371H116.621V47.8451H111.764Z" fill="white"/>
<path d="M123.298 56.3934V55.5014H119.074V52.5033H122.369V51.6113H119.074V48.7371H123.199V47.8451H117.959V56.3934H123.298Z" fill="white"/>
<path d="M131.244 56.3934V47.8451H130.129V51.6113H126.127V47.8451H125.012V56.3934H126.127V52.5033H130.129V56.3934H131.244Z" fill="white"/>
<path d="M139.169 48.7371V47.8451H132.578V48.7371H135.316V56.3934H136.431V48.7371H139.169Z" fill="white"/>
<path d="M143.415 56.5173C145.348 56.5173 146.438 55.7492 146.723 53.9652H145.558C145.335 55.2041 144.629 55.6253 143.415 55.6253C141.718 55.6253 141.012 54.4236 141.012 52.5033V51.7104C141.012 49.753 141.767 48.6132 143.415 48.6132C144.703 48.6132 145.36 49.1583 145.546 50.3353H146.71C146.438 48.5265 145.484 47.7213 143.415 47.7213C140.999 47.7213 139.847 49.307 139.847 52.1193C139.847 54.9315 140.999 56.5173 143.415 56.5173Z" fill="white"/>
<path d="M154.171 48.7371V47.8451H147.58V48.7371H150.318V56.3934H151.433V48.7371H154.171Z" fill="white"/>
<path d="M161.546 54.0148C161.546 52.8007 160.914 52.1564 159.947 51.9334C160.79 51.6485 161.236 50.9423 161.236 49.976C161.236 48.5389 160.356 47.8451 158.709 47.8451H155.512V56.3934H158.907C160.666 56.3934 161.546 55.5881 161.546 54.0148ZM160.393 53.6926V54.2254C160.393 55.0926 159.836 55.5014 158.808 55.5014H156.627V52.4538H158.808C159.96 52.4538 160.393 52.9369 160.393 53.6926ZM160.071 49.8769V50.3477C160.071 51.1777 159.601 51.6113 158.721 51.6113H156.627V48.7371H158.721C159.588 48.7371 160.071 49.1212 160.071 49.8769Z" fill="white"/>
<path d="M170.268 52.1193C170.268 49.1955 169.078 47.7213 166.539 47.7213C163.999 47.7213 162.822 49.1955 162.822 52.1193C162.822 55.0306 163.999 56.5173 166.539 56.5173C169.078 56.5173 170.268 55.0306 170.268 52.1193ZM169.103 52.5033C169.103 54.4979 168.323 55.6253 166.539 55.6253C164.755 55.6253 163.986 54.4979 163.986 52.5033V51.7104C163.986 49.7282 164.755 48.6132 166.539 48.6132C168.323 48.6132 169.103 49.7282 169.103 51.7104V52.5033Z" fill="white"/>
<path d="M180.773 50.4963C180.773 48.861 179.906 47.8451 177.998 47.8451H175.124V56.3934H176.239V53.0856H177.998C179.906 53.0856 180.773 52.1069 180.773 50.4963ZM179.609 50.7565C179.609 51.6485 179.076 52.1441 177.924 52.1441H176.239V48.7867H177.924C179.076 48.7867 179.609 49.2822 179.609 50.2238V50.7565Z" fill="white"/>
<path d="M187.698 56.3934V55.5014H183.474V52.5033H186.769V51.6113H183.474V48.7371H187.599V47.8451H182.359V56.3934H187.698Z" fill="white"/>
<path d="M195.061 50.4468C195.061 48.8362 194.268 47.8451 192.286 47.8451H189.412V56.3934H190.527V52.9865H192.274L194.12 56.3934H195.408L193.463 52.8378C194.591 52.5157 195.061 51.6609 195.061 50.4468ZM193.897 50.6946C193.897 51.5618 193.364 52.0449 192.212 52.0449H190.527V48.7867H192.212C193.364 48.7867 193.897 49.2699 193.897 50.1618V50.6946Z" fill="white"/>
<path d="M198.101 56.3934V52.6148H201.359V51.7104H198.101V48.7371H202.102V47.8451H196.986V56.3934H198.101Z" fill="white"/>
<path d="M210.676 52.1193C210.676 49.1955 209.487 47.7213 206.947 47.7213C204.408 47.7213 203.231 49.1955 203.231 52.1193C203.231 55.0306 204.408 56.5173 206.947 56.5173C209.487 56.5173 210.676 55.0306 210.676 52.1193ZM209.512 52.5033C209.512 54.4979 208.731 55.6253 206.947 55.6253C205.163 55.6253 204.395 54.4979 204.395 52.5033V51.7104C204.395 49.7282 205.163 48.6132 206.947 48.6132C208.731 48.6132 209.512 49.7282 209.512 51.7104V52.5033Z" fill="white"/>
<path d="M218.085 50.4468C218.085 48.8362 217.292 47.8451 215.31 47.8451H212.435V56.3934H213.55V52.9865H215.297L217.143 56.3934H218.431L216.486 52.8378C217.614 52.5157 218.085 51.6609 218.085 50.4468ZM216.92 50.6946C216.92 51.5618 216.387 52.0449 215.235 52.0449H213.55V48.7867H215.235C216.387 48.7867 216.92 49.2699 216.92 50.1618V50.6946Z" fill="white"/>
<path d="M221.842 47.8451H220.009V56.3934H221.062V48.7619L223.441 55.0306H224.803L227.194 48.7619V56.3934H228.309V47.8451H226.55L224.184 54.0395L221.842 47.8451Z" fill="white"/>
<path d="M232.406 47.8451L229.569 56.3934H230.622L231.428 53.9528H235.132L235.999 56.3934H237.114L234.091 47.8451H232.406ZM233.224 48.5513L234.81 53.0484H231.725L233.224 48.5513Z" fill="white"/>
<path d="M239.836 47.8451H238.374V56.3934H239.44V49.3566L243.206 56.3934H244.68V47.8451H243.615V54.9191L239.836 47.8451Z" fill="white"/>
<path d="M250.002 56.5173C251.935 56.5173 253.025 55.7492 253.31 53.9652H252.145C251.922 55.2041 251.216 55.6253 250.002 55.6253C248.305 55.6253 247.599 54.4236 247.599 52.5033V51.7104C247.599 49.753 248.354 48.6132 250.002 48.6132C251.29 48.6132 251.947 49.1583 252.133 50.3353H253.297C253.025 48.5265 252.071 47.7213 250.002 47.7213C247.586 47.7213 246.434 49.307 246.434 52.1193C246.434 54.9315 247.586 56.5173 250.002 56.5173Z" fill="white"/>
<path d="M260.349 56.3934V55.5014H256.125V52.5033H259.42V51.6113H256.125V48.7371H260.25V47.8451H255.01V56.3934H260.349Z" fill="white"/>
<path d="M266.994 47.8451H265.16V56.3934H266.213V48.7619L268.592 55.0306H269.955L272.346 48.7619V56.3934H273.461V47.8451H271.702L269.335 54.0395L266.994 47.8451Z" fill="white"/>
<path d="M277.558 47.8451L274.721 56.3934H275.774L276.579 53.9528H280.283L281.15 56.3934H282.265L279.243 47.8451H277.558ZM278.375 48.5513L279.961 53.0484H276.876L278.375 48.5513Z" fill="white"/>
<path d="M289.175 50.4963C289.175 48.861 288.308 47.8451 286.4 47.8451H283.526V56.3934H284.641V53.0856H286.4C288.308 53.0856 289.175 52.1069 289.175 50.4963ZM288.01 50.7565C288.01 51.6485 287.478 52.1441 286.326 52.1441H284.641V48.7867H286.326C287.478 48.7867 288.01 49.2822 288.01 50.2238V50.7565Z" fill="white"/>
<path d="M291.875 47.8451H290.76V56.3934H291.875V52.5777H292.73L295.691 56.3934H297.054L293.672 52.0449L296.781 47.8451H295.518L292.73 51.6361H291.875V47.8451Z" fill="white"/>
<path d="M303.746 56.3934V55.5014H299.522V52.5033H302.817V51.6113H299.522V48.7371H303.647V47.8451H298.407V56.3934H303.746Z" fill="white"/>
<path d="M311.208 48.7371V47.8451H304.618V48.7371H307.356V56.3934H308.471V48.7371H311.208Z" fill="white"/>
<path d="M313.838 56.3934L317.79 49.2698V56.3934H318.905V47.8451H317.604L313.665 54.9687V47.8451H312.55V56.3934H313.838Z" fill="white"/>
<path d="M327.323 56.3934V47.8451H326.208V51.6113H322.206V47.8451H321.091V56.3934H322.206V52.5033H326.208V56.3934H327.323Z" fill="white"/>
<path d="M329.5 47.8451V56.3934H330.615V48.7371H334.356V47.8451H329.5Z" fill="white"/>
<path d="M336.538 47.8451L333.701 56.3934H334.754L335.559 53.9528H339.263L340.13 56.3934H341.245L338.222 47.8451H336.538ZM337.355 48.5513L338.941 53.0484H335.856L337.355 48.5513Z" fill="white"/>
</svg>
