<svg width="70" height="70" viewBox="0 0 70 70" fill="none" xmlns="http://www.w3.org/2000/svg">
<path d="M20.6445 32.9492H30.0493L20.6445 23.5445V32.9492Z" fill="#8A8A8A"/>
<path d="M20.6445 47.3047C20.6445 50.697 23.4045 53.457 26.7969 53.457C28.5849 53.457 30.2389 52.6511 31.3956 51.3352C29.7956 49.0206 28.8477 46.2232 28.8477 43.2031C28.8477 40.9932 29.3913 38.9227 30.2875 37.0508H20.6445V47.3047Z" fill="#8A8A8A"/>
<path d="M19.0066 16.1066C20.8886 13.8844 23.6636 12.4414 26.7969 12.4414C32.4504 12.4414 37.0508 17.0418 37.0508 22.6953V30.2875C38.9227 29.3913 40.9932 28.8477 43.2031 28.8477C51.1179 28.8477 57.5586 35.2884 57.5586 43.2031C57.5586 46.4208 56.4558 49.3635 54.6603 51.7603L61.1678 58.1311C66.8565 51.7443 70 43.6234 70 35C70 15.7344 54.2709 0 35 0C26.3766 0 18.2557 3.28018 11.8689 8.96896L19.0066 16.1066Z" fill="#8A8A8A"/>
<path d="M53.457 43.2031C53.457 37.5496 48.8567 32.9492 43.2031 32.9492C41.1166 32.9492 39.1785 33.5826 37.5576 34.6577L51.7486 48.8486C52.8237 47.2278 53.457 45.2897 53.457 43.2031Z" fill="#8A8A8A"/>
<path d="M51.7603 54.6603C49.3635 56.4558 46.4208 57.5586 43.2031 57.5586C39.7942 57.5586 36.7004 56.3142 34.2352 54.3211C32.3212 56.3468 29.6514 57.5586 26.7969 57.5586C21.1433 57.5586 16.543 52.9582 16.543 47.3047V22.6953C16.543 21.7137 16.7256 20.7834 16.9841 19.884L8.96896 11.8689C3.28018 18.2557 0 26.3766 0 35C0 54.2656 15.7291 70 35 70C43.6234 70 51.7443 66.7198 58.1311 61.031L51.7603 54.6603Z" fill="#8A8A8A"/>
<path d="M43.2031 53.457C45.2897 53.457 47.2278 52.8237 48.8486 51.7486L34.6577 37.5576C33.5826 39.1785 32.9492 41.1166 32.9492 43.2031C32.9492 48.8567 37.5496 53.457 43.2031 53.457Z" fill="#8A8A8A"/>
<path d="M32.9491 22.6953C32.9491 19.303 30.189 16.543 26.7967 16.543C24.794 16.543 23.0295 17.5192 21.9053 19.0055L32.9491 30.0493V22.6953Z" fill="#8A8A8A"/>
</svg>
